# Blender v2.78 (sub 0) OBJ File: 'Dagger.blend'
# www.blender.org
o Dagger_Plane.002
v 0.105256 8.554321 -0.354433
v 0.104712 12.815153 -0.589092
v 0.105906 6.155544 -0.592076
v 0.594744 -3.662704 -0.598511
v 0.594744 -2.164787 -0.598511
v -0.000000 -3.662704 -0.844862
v -0.000000 -2.164787 -0.844862
v -0.594744 -3.662704 -0.598511
v -0.594744 -2.164787 -0.598511
v 0.398801 -4.008297 -0.402568
v -0.000000 -4.008297 -0.567756
v -0.398801 -4.008297 -0.402567
v 0.453381 -1.851695 -0.457148
v -0.000000 -1.851695 -0.644945
v -0.453381 -1.851695 -0.457148
v -0.000000 -0.331545 -0.583994
v -0.000000 0.932335 -0.592781
v -0.416496 0.932335 -0.420263
v -0.410283 -0.331545 -0.414050
v 0.416496 0.932335 -0.420263
v 0.410283 -0.331545 -0.414050
v 0.108264 3.241968 -0.382978
v 0.742745 3.306128 -0.033077
v 1.620872 5.153044 -0.042955
v 1.473458 12.248886 -0.045969
v 0.103248 15.625925 -0.035455
v -0.000000 12.818598 -0.633961
v 0.870564 8.579224 -0.041092
v -0.000000 6.156073 -0.633961
v -0.105256 8.554321 -0.354433
v -0.104712 12.815153 -0.589092
v -0.105906 6.155543 -0.592076
v -0.108264 3.241967 -0.382978
v -0.742745 3.306128 -0.033077
v -1.620872 5.153044 -0.042955
v -1.473458 12.248886 -0.045969
v -0.103248 15.625925 -0.035455
v -0.870564 8.579224 -0.041092
v -0.000000 8.555235 -0.418718
v 3.341509 3.620995 -0.236378
v 3.209874 3.593504 -0.367717
v 3.353930 4.803248 -0.236378
v 3.219360 4.496388 -0.367717
v -0.000709 2.132494 -0.769758
v -0.000709 3.152459 -0.769758
v 1.101512 1.858400 -0.769758
v 2.609429 2.771272 -0.573759
v 2.629776 2.646368 -0.442420
v 2.451341 3.741709 -0.442420
v 2.471655 3.617009 -0.573759
v 1.101512 3.259166 -0.769758
v -3.196150 3.620555 -0.367717
v -3.327501 3.620995 -0.236378
v -3.205320 4.493368 -0.367717
v -3.339922 4.803248 -0.236378
v -1.087504 1.858400 -0.769758
v -2.615768 2.822704 -0.442420
v -2.592349 2.943322 -0.573759
v -2.461292 3.618312 -0.573759
v -2.437333 3.741709 -0.442420
v -1.087504 3.259166 -0.769758
v -0.000709 3.020498 -0.901097
v 1.101512 3.127204 -0.901097
v 1.101512 1.993796 -0.901097
v -0.000709 2.267889 -0.901097
v -1.087504 3.127204 -0.901097
v -1.087504 1.993796 -0.901097
v -0.000000 2.141042 -0.591887
v 0.791194 3.229124 -0.009467
v -0.031193 3.155452 -0.401820
v -0.000709 3.152459 -0.411583
v 0.031286 3.155557 -0.401798
v -0.790631 3.230018 -0.009741
v 0.446802 2.021210 -0.450569
v -0.446767 2.019997 -0.450534
v 1.579004 12.260141 0.000001
v -0.000000 16.149858 0.000001
v 0.976725 8.581938 0.000000
v 1.729574 5.140343 0.000000
v 0.105256 8.554321 0.354434
v 0.104712 12.815153 0.589093
v 0.105906 6.155544 0.592077
v -0.976725 8.581938 0.000000
v -1.579004 12.260141 0.000001
v 3.341509 3.620995 0.000000
v 3.353930 4.803248 0.000000
v 1.101512 1.858400 0.000000
v 2.629776 2.646368 0.000000
v 2.451341 3.741709 0.000000
v 1.101512 3.259166 0.000000
v -3.327501 3.620995 0.000000
v -3.339922 4.803248 0.000000
v -1.087504 1.858400 0.000000
v -2.615768 2.822704 0.000000
v -2.437333 3.741709 0.000000
v -1.087504 3.259166 0.000000
v 0.841095 -3.662704 -0.000000
v 0.841095 -2.164787 -0.000000
v 0.594744 -3.662704 0.598511
v 0.594744 -2.164787 0.598511
v -0.000000 -3.662704 0.844862
v -0.000000 -2.164787 0.844862
v -0.594744 -3.662704 0.598510
v -0.594744 -2.164787 0.598511
v -0.841095 -3.662704 -0.000000
v -0.841095 -2.164787 -0.000000
v 0.563989 -4.008297 -0.000000
v 0.398801 -4.008297 0.402567
v -0.000000 -4.008297 0.567756
v -0.398801 -4.008297 0.402567
v -0.563989 -4.008297 -0.000000
v 0.641178 -1.851695 -0.000000
v 0.453381 -1.851695 0.457148
v -0.000000 -1.851695 0.644945
v -0.453381 -1.851695 0.457148
v -0.641178 -1.851695 -0.000000
v 0.589014 0.932335 0.000000
v 0.580227 -0.331545 -0.000000
v -0.580227 -0.331545 -0.000000
v -0.589014 0.932335 0.000000
v -0.000000 -0.331545 0.583994
v -0.000000 0.932335 0.592781
v -0.416496 0.932335 0.420263
v -0.410283 -0.331545 0.414050
v 0.416496 0.932335 0.420263
v 0.410283 -0.331545 0.414050
v 0.108264 3.241968 0.382978
v 0.742745 3.306128 0.033077
v 1.620872 5.153044 0.042955
v 1.473458 12.248886 0.045971
v 0.103248 15.625925 0.035456
v -0.000000 12.818598 0.633962
v 0.870564 8.579224 0.041093
v -0.000000 6.156073 0.633961
v -1.729574 5.140343 0.000000
v -0.105256 8.554321 0.354434
v -0.104712 12.815153 0.589093
v -0.105906 6.155543 0.592077
v -0.108264 3.241967 0.382978
v -0.742745 3.306128 0.033077
v -1.620872 5.153044 0.042955
v -1.473458 12.248886 0.045971
v -0.103248 15.625925 0.035456
v -0.870564 8.579224 0.041093
v -0.000000 8.555235 0.418718
v 3.341509 3.620995 0.236378
v 3.209874 3.593504 0.367717
v 3.353930 4.803248 0.236378
v 3.219360 4.496388 0.367717
v -0.000709 2.132494 0.769758
v -0.000709 3.152459 0.769758
v 1.101512 1.858400 0.769758
v 2.609429 2.771272 0.573759
v 2.629776 2.646368 0.442420
v 2.451341 3.741709 0.442420
v 2.471655 3.617009 0.573759
v 1.101512 3.259166 0.769758
v -3.196150 3.620554 0.367717
v -3.327501 3.620995 0.236378
v -3.205320 4.493368 0.367717
v -3.339922 4.803248 0.236378
v -1.087504 1.858400 0.769758
v -2.615768 2.822704 0.442420
v -2.592349 2.943322 0.573759
v -2.461292 3.618312 0.573759
v -2.437333 3.741709 0.442420
v -1.087504 3.259166 0.769758
v -0.000709 3.020498 0.901097
v 1.101512 3.127204 0.901097
v 1.101512 1.993796 0.901097
v -0.000709 2.267889 0.901097
v -1.087504 3.127204 0.901097
v -1.087504 1.993796 0.901097
v -0.000000 2.141042 0.591887
v 0.791194 3.229124 0.009467
v -0.031193 3.155452 0.401821
v 0.826865 3.232577 0.000000
v -0.000709 3.152459 0.411583
v 0.031286 3.155557 0.401798
v -0.790631 3.230018 0.009741
v -0.827360 3.233624 0.000000
v 0.446802 2.021210 0.450570
v -0.629921 1.973805 0.000000
v 0.629998 1.975654 0.000000
v -0.446767 2.019997 0.450534
vt 0.0401 0.6835
vt 0.1376 0.7238
vt 0.1375 0.4204
vt 0.0830 0.4222
vt 0.1527 0.0421
vt 0.1526 0.2496
vt 0.2605 0.1782
vt 0.1979 0.0467
vt 0.4261 0.0540
vt 0.4261 0.1060
vt 0.5643 0.1060
vt 0.5643 0.0540
vt 0.3284 0.4000
vt 0.3972 0.4000
vt 0.3972 0.2550
vt 0.3284 0.2550
vt 0.5643 0.9459
vt 0.5643 0.8943
vt 0.4261 0.8943
vt 0.4261 0.9459
vt 0.6620 0.6000
vt 0.5932 0.6000
vt 0.5932 0.7449
vt 0.6620 0.7449
vt 0.4261 0.7449
vt 0.4261 0.8729
vt 0.5643 0.8729
vt 0.5643 0.7449
vt 0.4261 0.2550
vt 0.5643 0.2550
vt 0.5643 0.1273
vt 0.4261 0.1273
vt 0.6620 0.1273
vt 0.5932 0.1273
vt 0.5932 0.2550
vt 0.6620 0.2550
vt 0.4261 0.4000
vt 0.5643 0.4000
vt 0.5932 0.8729
vt 0.6620 0.8729
vt 0.3284 0.8729
vt 0.3972 0.8729
vt 0.3972 0.7449
vt 0.3284 0.7449
vt 0.4261 0.6000
vt 0.5643 0.6000
vt 0.5932 0.4000
vt 0.6620 0.4000
vt 0.3972 0.6000
vt 0.3284 0.6000
vt 0.9402 0.2557
vt 0.8869 0.2557
vt 0.8869 0.4372
vt 0.9402 0.4372
vt 0.8320 0.2557
vt 0.8320 0.4372
vt 0.7770 0.2557
vt 0.7770 0.4372
vt 0.7237 0.2557
vt 0.7237 0.4372
vt 0.8869 0.4822
vt 0.9402 0.4822
vt 0.8411 0.0163
vt 0.8411 0.0507
vt 0.7916 0.0712
vt 0.7672 0.0469
vt 0.9456 0.1212
vt 0.9111 0.1212
vt 0.8906 0.0712
vt 0.9150 0.0469
vt 0.7710 0.1212
vt 0.7366 0.1212
vt 0.7237 0.4822
vt 0.7770 0.4822
vt 0.8320 0.4822
vt 0.7237 0.8197
vt 0.7237 0.9523
vt 0.7770 0.9523
vt 0.7770 0.8197
vt 0.8320 0.6665
vt 0.8869 0.6665
vt 0.8320 0.8197
vt 0.8869 0.8197
vt 0.7237 0.6665
vt 0.7770 0.6665
vt 0.9402 0.6665
vt 0.9402 0.8197
vt 0.1524 0.9240
vt 0.1450 0.9613
vt 0.2575 0.6843
vt 0.2500 0.6835
vt 0.1525 0.7238
vt 0.1450 0.7241
vt 0.2146 0.4224
vt 0.2070 0.4222
vt 0.2682 0.1773
vt 0.0755 0.4224
vt 0.0326 0.6843
vt 0.0296 0.1782
vt 0.0219 0.1773
vt 0.1375 0.2496
vt 0.1373 0.0421
vt 0.0921 0.0467
vt 0.1450 0.2496
vt 0.1450 0.4205
vt 0.1525 0.4204
vt 0.1377 0.9240
vt 0.3972 0.1273
vt 0.5643 0.5000
vt 0.5932 0.5000
vt 0.3972 0.5000
vt 0.4261 0.5000
vt 0.3284 0.1273
vt 0.8869 0.9523
vt 0.9402 0.9523
vt 0.2014 0.0412
vt 0.1473 0.0360
vt 0.2039 0.0415
vt 0.0887 0.0413
vt 0.0861 0.0415
vt 0.1428 0.0360
vt 0.6619 0.5749
vt 0.6588 0.5679
vt 0.6249 0.5089
vt 0.6233 0.5000
vt 0.3546 0.4550
vt 0.3684 0.5000
vt 0.8320 0.9523
vt 0.3544 0.5451
vt 0.3284 0.4340
vt 0.3284 0.5661
vt 0.6249 0.4911
vt 0.6588 0.4321
vt 0.6619 0.4250
vt 0.1450 0.0358
vt 0.0401 0.6835
vt 0.0830 0.4222
vt 0.1375 0.4204
vt 0.1376 0.7238
vt 0.1527 0.0421
vt 0.1979 0.0467
vt 0.2605 0.1782
vt 0.1526 0.2496
vt 0.4261 0.9459
vt 0.5643 0.9459
vt 0.5643 0.8943
vt 0.4261 0.8943
vt 0.3284 0.6000
vt 0.3284 0.7449
vt 0.3972 0.7449
vt 0.3972 0.6000
vt 0.5643 0.0540
vt 0.4261 0.0540
vt 0.4261 0.1060
vt 0.5643 0.1060
vt 0.6620 0.4000
vt 0.6620 0.2550
vt 0.5932 0.2550
vt 0.5932 0.4000
vt 0.4261 0.2550
vt 0.5643 0.2550
vt 0.5643 0.1273
vt 0.4261 0.1273
vt 0.4261 0.7449
vt 0.4261 0.8729
vt 0.5643 0.8729
vt 0.5643 0.7449
vt 0.6620 0.8729
vt 0.6620 0.7449
vt 0.5932 0.7449
vt 0.5932 0.8729
vt 0.4261 0.6000
vt 0.5643 0.6000
vt 0.6620 0.1273
vt 0.5932 0.1273
vt 0.3284 0.1273
vt 0.3284 0.2550
vt 0.3972 0.2550
vt 0.3972 0.1273
vt 0.4261 0.4000
vt 0.5643 0.4000
vt 0.6620 0.6000
vt 0.5932 0.6000
vt 0.3284 0.4000
vt 0.3972 0.4000
vt 0.7237 0.2557
vt 0.7237 0.4372
vt 0.7770 0.4372
vt 0.7770 0.2557
vt 0.8320 0.4372
vt 0.8320 0.2557
vt 0.8869 0.4372
vt 0.8869 0.2557
vt 0.9402 0.4372
vt 0.9402 0.2557
vt 0.7237 0.4822
vt 0.7770 0.4822
vt 0.8411 0.2261
vt 0.7672 0.1955
vt 0.7916 0.1712
vt 0.8411 0.1917
vt 0.9150 0.1955
vt 0.8906 0.1712
vt 0.8869 0.4822
vt 0.9402 0.4822
vt 0.8320 0.4822
vt 0.9402 0.8197
vt 0.8869 0.8197
vt 0.8869 0.9523
vt 0.9402 0.9523
vt 0.7770 0.6665
vt 0.8320 0.6665
vt 0.7770 0.8197
vt 0.8320 0.8197
vt 0.8869 0.6665
vt 0.9402 0.6665
vt 0.7237 0.6665
vt 0.7237 0.8197
vt 0.1524 0.9240
vt 0.2500 0.6835
vt 0.1525 0.7238
vt 0.1450 0.7241
vt 0.2070 0.4222
vt 0.0296 0.1782
vt 0.1375 0.2496
vt 0.1373 0.0421
vt 0.0921 0.0467
vt 0.1525 0.4204
vt 0.1450 0.4205
vt 0.1450 0.2496
vt 0.1377 0.9240
vt 0.3972 0.8729
vt 0.5932 0.5000
vt 0.5643 0.5000
vt 0.3972 0.5000
vt 0.4261 0.5000
vt 0.3284 0.8729
vt 0.7237 0.9523
vt 0.7770 0.9523
vt 0.1473 0.0360
vt 0.2014 0.0412
vt 0.0887 0.0413
vt 0.1428 0.0360
vt 0.6619 0.4250
vt 0.6233 0.5000
vt 0.6249 0.4911
vt 0.6588 0.4321
vt 0.3544 0.5451
vt 0.3684 0.5000
vt 0.8320 0.9523
vt 0.3546 0.4550
vt 0.3284 0.5661
vt 0.3284 0.4340
vt 0.6619 0.5749
vt 0.6588 0.5678
vt 0.6249 0.5088
vt 0.1450 0.0358
vn -0.3597 -0.0555 -0.9314
vn 0.3439 -0.1062 -0.9330
vn 0.9999 -0.0105 0.0000
vn 0.4583 -0.8888 0.0000
vn -0.9999 -0.0105 0.0000
vn 0.3366 0.9416 -0.0000
vn -0.2699 0.0213 -0.9627
vn 0.2694 0.0198 -0.9628
vn -0.7618 0.6478 -0.0000
vn 0.2155 0.0150 -0.9764
vn 0.7618 0.6478 -0.0000
vn -0.7464 -0.6655 0.0000
vn -0.2143 0.0155 -0.9766
vn -0.3366 0.9416 -0.0000
vn -0.5336 -0.8457 0.0000
vn 0.9247 0.0000 -0.3806
vn 0.3827 -0.0000 -0.9239
vn -0.3827 -0.0000 -0.9239
vn -0.9247 0.0000 -0.3806
vn 0.7966 0.5081 -0.3276
vn -0.3075 -0.5953 -0.7424
vn 0.7432 -0.5953 -0.3055
vn -0.7432 -0.5953 -0.3055
vn 0.3075 -0.5953 -0.7424
vn -0.7966 0.5081 -0.3276
vn 0.3296 0.5081 -0.7957
vn -0.3296 0.5081 -0.7957
vn -0.9245 -0.0363 -0.3795
vn 0.3824 0.0370 -0.9232
vn 0.3827 -0.0064 -0.9239
vn -0.9244 0.0370 -0.3796
vn -0.9251 -0.0064 -0.3797
vn 0.9244 0.0370 -0.3796
vn 0.9251 -0.0064 -0.3797
vn -0.3824 0.0370 -0.9232
vn -0.3827 -0.0064 -0.9239
vn 0.3415 0.1399 -0.9294
vn 0.4656 0.1681 -0.8689
vn 0.3831 -0.0635 -0.9215
vn 0.3663 0.0804 -0.9270
vn -0.3831 -0.0635 -0.9215
vn -0.3663 0.0804 -0.9270
vn -0.3850 0.0874 -0.9188
vn -0.3439 -0.1062 -0.9330
vn 0.4481 0.0841 -0.8900
vn 0.4600 -0.0468 -0.8867
vn -0.3415 0.1399 -0.9294
vn -0.4656 0.1681 -0.8689
vn -0.4481 0.0841 -0.8900
vn -0.4600 -0.0468 -0.8867
vn 0.7224 -0.3979 -0.5655
vn 0.7071 -0.0074 -0.7071
vn -0.0681 0.7038 -0.7071
vn -0.1706 -0.6861 -0.7073
vn 0.4557 -0.6144 -0.6441
vn -0.4695 0.5464 -0.6935
vn -0.0852 0.7094 -0.6997
vn -0.6746 -0.4349 -0.5965
vn -0.7071 -0.0074 -0.7071
vn -0.5090 -0.5933 -0.6236
vn 0.4633 0.5429 -0.7004
vn 0.0861 0.7104 -0.6985
vn 0.0691 0.7037 -0.7071
vn 0.1730 -0.6858 -0.7070
vn 0.8076 -0.5897 0.0000
vn 0.0000 0.0000 -1.0000
vn 0.0000 -1.0000 0.0000
vn 0.9245 -0.0363 -0.3795
vn 0.4754 -0.1086 -0.8730
vn 0.3049 -0.1471 -0.9410
vn -0.3049 -0.1471 -0.9410
vn -0.4755 -0.1095 -0.8729
vn 0.0977 0.9952 0.0000
vn -0.2472 -0.9689 0.0088
vn -0.3396 -0.0165 -0.9404
vn 0.3396 -0.0165 -0.9404
vn 0.2502 -0.9681 0.0085
vn -0.2413 -0.9704 0.0000
vn 0.2445 -0.9696 -0.0000
vn 0.4249 0.1752 -0.8881
vn -0.4249 0.1752 -0.8881
vn 0.3597 -0.0555 -0.9314
vn 0.3850 0.0874 -0.9188
vn -0.0964 0.9953 -0.0000
vn 0.3363 -0.0683 -0.9393
vn -0.3383 -0.0683 -0.9386
vn -0.3597 -0.0555 0.9314
vn 0.3439 -0.1062 0.9330
vn -0.2699 0.0213 0.9627
vn 0.2694 0.0198 0.9628
vn 0.2155 0.0150 0.9764
vn -0.2143 0.0155 0.9766
vn 0.9247 -0.0000 0.3806
vn 0.3827 -0.0000 0.9239
vn -0.3827 -0.0000 0.9239
vn -0.9247 -0.0000 0.3806
vn 0.7966 0.5081 0.3276
vn -0.3075 -0.5953 0.7424
vn 0.7432 -0.5953 0.3055
vn -0.7432 -0.5953 0.3055
vn 0.3075 -0.5953 0.7424
vn -0.7966 0.5081 0.3276
vn 0.3296 0.5081 0.7957
vn -0.3296 0.5081 0.7957
vn -0.9245 -0.0363 0.3795
vn 0.3824 0.0370 0.9232
vn 0.3827 -0.0064 0.9239
vn -0.9244 0.0370 0.3796
vn -0.9251 -0.0064 0.3797
vn 0.9244 0.0370 0.3796
vn 0.9251 -0.0064 0.3797
vn -0.3824 0.0370 0.9232
vn -0.3827 -0.0064 0.9239
vn 0.3415 0.1399 0.9294
vn 0.4656 0.1681 0.8689
vn 0.3831 -0.0635 0.9215
vn 0.3663 0.0804 0.9270
vn -0.3831 -0.0635 0.9215
vn -0.3663 0.0804 0.9270
vn -0.3850 0.0874 0.9188
vn -0.3439 -0.1062 0.9330
vn 0.4481 0.0841 0.8900
vn 0.4600 -0.0468 0.8867
vn -0.3415 0.1399 0.9294
vn -0.4656 0.1681 0.8689
vn -0.4481 0.0841 0.8900
vn -0.4600 -0.0468 0.8867
vn 0.7224 -0.3979 0.5655
vn 0.7071 -0.0074 0.7071
vn -0.0681 0.7038 0.7071
vn -0.1706 -0.6861 0.7073
vn 0.4557 -0.6144 0.6441
vn -0.4695 0.5464 0.6935
vn -0.0852 0.7094 0.6997
vn -0.6746 -0.4349 0.5965
vn -0.7071 -0.0074 0.7071
vn -0.5090 -0.5933 0.6236
vn 0.4633 0.5429 0.7004
vn 0.0861 0.7104 0.6985
vn 0.0691 0.7037 0.7071
vn 0.1730 -0.6858 0.7070
vn 0.0000 -0.0000 1.0000
vn 0.9245 -0.0363 0.3795
vn 0.4754 -0.1086 0.8730
vn 0.3049 -0.1471 0.9410
vn -0.3049 -0.1471 0.9410
vn -0.4755 -0.1095 0.8729
vn -0.2472 -0.9689 -0.0088
vn -0.3396 -0.0165 0.9404
vn 0.3396 -0.0165 0.9404
vn 0.2502 -0.9681 -0.0085
vn 0.4249 0.1752 0.8881
vn -0.4249 0.1752 0.8881
vn 0.3597 -0.0555 0.9314
vn 0.3850 0.0874 0.9188
vn 0.3363 -0.0683 0.9393
vn -0.3383 -0.0683 0.9386
s off
f 36/1/1 31/2/1 30/3/1 38/4/1
f 22/5/2 3/6/2 24/7/2 23/8/2
f 85/9/3 40/10/3 42/11/3 86/12/3
f 87/13/4 46/14/4 48/15/4 88/16/4
f 92/17/5 55/18/5 53/19/5 91/20/5
f 96/21/6 61/22/6 60/23/6 95/24/6
f 58/25/7 52/26/7 54/27/7 59/28/7
f 47/29/8 50/30/8 43/31/8 41/32/8
f 86/33/9 42/34/9 49/35/9 89/36/9
f 64/37/10 63/38/10 50/30/10 47/29/10
f 95/24/11 60/23/11 55/39/11 92/40/11
f 91/41/12 53/42/12 57/43/12 94/44/12
f 67/45/13 58/25/13 59/28/13 66/46/13
f 89/36/14 49/35/14 51/47/14 90/48/14
f 94/44/15 57/43/15 56/49/15 93/50/15
f 97/51/16 4/52/16 5/53/16 98/54/16
f 4/52/17 6/55/17 7/56/17 5/53/17
f 6/55/18 8/57/18 9/58/18 7/56/18
f 8/57/19 105/59/19 106/60/19 9/58/19
f 5/53/20 13/61/20 112/62/20 98/54/20
f 6/63/21 11/64/21 12/65/21 8/66/21
f 97/67/22 107/68/22 10/69/22 4/70/22
f 8/66/23 12/65/23 111/71/23 105/72/23
f 4/70/24 10/69/24 11/64/24 6/63/24
f 106/60/25 116/73/25 15/74/25 9/58/25
f 7/56/26 14/75/26 13/61/26 5/53/26
f 9/58/27 15/74/27 14/75/27 7/56/27
f 120/76/28 183/77/28 75/78/28 18/79/28
f 14/75/29 16/80/29 21/81/29 13/61/29
f 16/80/30 17/82/30 20/83/30 21/81/30
f 116/73/31 119/84/31 19/85/31 15/74/31
f 119/84/32 120/76/32 18/79/32 19/85/32
f 13/61/33 21/81/33 118/86/33 112/62/33
f 21/81/34 20/83/34 117/87/34 118/86/34
f 15/74/35 19/85/35 16/80/35 14/75/35
f 19/85/36 18/79/36 17/82/36 16/80/36
f 26/88/37 77/89/37 76/90/37 25/91/37
f 2/92/38 27/93/38 77/89/38 26/88/38
f 25/91/39 76/90/39 78/94/39 28/95/39
f 28/95/40 78/94/40 79/96/40 24/7/40
f 36/1/41 38/4/41 83/97/41 84/98/41
f 38/4/42 35/99/42 135/100/42 83/97/42
f 38/4/43 30/3/43 32/101/43 35/99/43
f 33/102/44 34/103/44 35/99/44 32/101/44
f 3/6/45 29/104/45 39/105/45 1/106/45
f 1/106/46 39/105/46 27/93/46 2/92/46
f 37/107/47 36/1/47 84/98/47 77/89/47
f 31/2/48 37/107/48 77/89/48 27/93/48
f 32/101/49 30/3/49 39/105/49 29/104/49
f 30/3/50 31/2/50 27/93/50 39/105/50
f 48/15/51 47/29/51 41/32/51 40/108/51
f 40/10/52 41/32/52 43/31/52 42/11/52
f 51/47/53 63/38/53 62/109/53 45/110/53
f 44/111/54 65/112/54 64/37/54 46/14/54
f 46/14/55 64/37/55 47/29/55 48/15/55
f 42/34/56 43/31/56 50/30/56 49/35/56
f 49/35/57 50/30/57 63/38/57 51/47/57
f 58/25/58 57/43/58 53/42/58 52/26/58
f 52/26/59 53/19/59 55/18/59 54/27/59
f 67/45/60 56/49/60 57/43/60 58/25/60
f 54/27/61 55/39/61 60/23/61 59/28/61
f 59/28/62 60/23/62 61/22/62 66/46/62
f 66/46/63 61/22/63 45/110/63 62/109/63
f 65/112/64 44/111/64 56/49/64 67/45/64
f 88/16/65 48/15/65 40/108/65 85/113/65
f 62/109/66 63/38/66 64/37/66 65/112/66
f 107/68/67 111/71/67 12/65/67 11/64/67 10/69/67
f 20/83/68 74/114/68 184/115/68 117/87/68
f 23/8/69 69/116/69 72/117/69 22/5/69
f 24/7/70 79/96/70 177/118/70 69/116/70 23/8/70
f 35/99/71 34/103/71 73/119/71 181/120/71 135/100/71
f 34/103/72 33/102/72 70/121/72 73/119/72
f 181/122/73 73/123/73 70/124/73 71/125/73 45/110/73 61/22/73 96/21/73
f 74/126/74 68/127/74 44/111/74 46/14/74
f 18/79/75 75/78/75 68/128/75 17/82/75
f 17/82/76 68/128/76 74/114/76 20/83/76
f 56/49/77 44/111/77 68/127/77 75/129/77
f 184/130/78 74/126/78 46/14/78 87/13/78
f 93/50/79 56/49/79 75/129/79 183/131/79
f 66/46/66 62/109/66 65/112/66 67/45/66
f 26/88/80 25/91/80 2/92/80
f 37/107/81 31/2/81 36/1/81
f 25/91/82 28/95/82 1/106/82 2/92/82
f 28/95/83 24/7/83 3/6/83 1/106/83
f 90/48/84 51/47/84 45/110/84 71/125/84 72/132/84 69/133/84 177/134/84
f 22/5/85 72/117/85 71/135/85 29/104/85 3/6/85
f 33/102/86 32/101/86 29/104/86 71/135/86 70/121/86
f 142/136/87 144/137/87 136/138/87 137/139/87
f 127/140/88 128/141/88 129/142/88 82/143/88
f 85/144/3 86/145/3 148/146/3 146/147/3
f 87/148/4 88/149/4 154/150/4 152/151/4
f 92/152/5 91/153/5 159/154/5 161/155/5
f 96/156/6 95/157/6 166/158/6 167/159/6
f 164/160/89 165/161/89 160/162/89 158/163/89
f 153/164/90 147/165/90 149/166/90 156/167/90
f 86/168/9 89/169/9 155/170/9 148/171/9
f 170/172/91 153/164/91 156/167/91 169/173/91
f 95/157/11 92/174/11 161/175/11 166/158/11
f 91/176/12 94/177/12 163/178/12 159/179/12
f 173/180/92 172/181/92 165/161/92 164/160/92
f 89/169/14 90/182/14 157/183/14 155/170/14
f 94/177/15 93/184/15 162/185/15 163/178/15
f 97/186/93 98/187/93 100/188/93 99/189/93
f 99/189/94 100/188/94 102/190/94 101/191/94
f 101/191/95 102/190/95 104/192/95 103/193/95
f 103/193/96 104/192/96 106/194/96 105/195/96
f 100/188/97 98/187/97 112/196/97 113/197/97
f 101/198/98 103/199/98 110/200/98 109/201/98
f 97/67/99 99/202/99 108/203/99 107/68/99
f 103/199/100 105/72/100 111/71/100 110/200/100
f 99/202/101 101/198/101 109/201/101 108/203/101
f 106/194/102 104/192/102 115/204/102 116/205/102
f 102/190/103 100/188/103 113/197/103 114/206/103
f 104/192/104 102/190/104 114/206/104 115/204/104
f 120/207/105 123/208/105 185/209/105 183/210/105
f 114/206/106 113/197/106 126/211/106 121/212/106
f 121/212/107 126/211/107 125/213/107 122/214/107
f 116/205/108 115/204/108 124/215/108 119/216/108
f 119/216/109 124/215/109 123/208/109 120/207/109
f 113/197/110 112/196/110 118/217/110 126/211/110
f 126/211/111 118/217/111 117/218/111 125/213/111
f 115/204/112 114/206/112 121/212/112 124/215/112
f 124/215/113 121/212/113 122/214/113 123/208/113
f 131/219/114 130/220/114 76/90/114 77/89/114
f 81/221/115 131/219/115 77/89/115 132/222/115
f 130/220/116 133/223/116 78/94/116 76/90/116
f 133/223/117 129/142/117 79/96/117 78/94/117
f 142/136/118 84/98/118 83/97/118 144/137/118
f 144/137/119 83/97/119 135/100/119 141/224/119
f 144/137/120 141/224/120 138/225/120 136/138/120
f 139/226/121 138/225/121 141/224/121 140/227/121
f 82/143/122 80/228/122 145/229/122 134/230/122
f 80/228/123 81/221/123 132/222/123 145/229/123
f 143/231/124 77/89/124 84/98/124 142/136/124
f 137/139/125 132/222/125 77/89/125 143/231/125
f 138/225/126 134/230/126 145/229/126 136/138/126
f 136/138/127 145/229/127 132/222/127 137/139/127
f 154/150/128 146/232/128 147/165/128 153/164/128
f 146/147/129 148/146/129 149/166/129 147/165/129
f 157/183/130 151/233/130 168/234/130 169/173/130
f 150/235/131 152/151/131 170/172/131 171/236/131
f 152/151/132 154/150/132 153/164/132 170/172/132
f 148/171/133 155/170/133 156/167/133 149/166/133
f 155/170/134 157/183/134 169/173/134 156/167/134
f 164/160/135 158/163/135 159/179/135 163/178/135
f 158/163/136 160/162/136 161/155/136 159/154/136
f 173/180/137 164/160/137 163/178/137 162/185/137
f 160/162/138 165/161/138 166/158/138 161/175/138
f 165/161/139 172/181/139 167/159/139 166/158/139
f 172/181/140 168/234/140 151/233/140 167/159/140
f 171/236/141 173/180/141 162/185/141 150/235/141
f 88/149/65 85/237/65 146/232/65 154/150/65
f 168/234/142 171/236/142 170/172/142 169/173/142
f 107/68/67 108/203/67 109/201/67 110/200/67 111/71/67
f 125/213/143 117/218/143 184/238/143 182/239/143
f 128/141/144 127/140/144 179/240/144 175/241/144
f 129/142/145 128/141/145 175/241/145 177/118/145 79/96/145
f 141/224/146 135/100/146 181/120/146 180/242/146 140/227/146
f 140/227/147 180/242/147 176/243/147 139/226/147
f 181/244/73 96/156/73 167/159/73 151/233/73 178/245/73 176/246/73 180/247/73
f 182/248/148 152/151/148 150/235/148 174/249/148
f 123/208/149 122/214/149 174/250/149 185/209/149
f 122/214/150 125/213/150 182/239/150 174/250/150
f 162/185/151 185/251/151 174/249/151 150/235/151
f 184/252/78 87/148/78 152/151/78 182/248/78
f 93/184/79 183/253/79 185/251/79 162/185/79
f 172/181/142 173/180/142 171/236/142 168/234/142
f 131/219/152 81/221/152 130/220/152
f 143/231/153 142/136/153 137/139/153
f 130/220/154 81/221/154 80/228/154 133/223/154
f 133/223/155 80/228/155 82/143/155 129/142/155
f 90/182/84 177/254/84 175/255/84 179/256/84 178/245/84 151/233/84 157/183/84
f 127/140/156 82/143/156 134/230/156 178/257/156 179/240/156
f 139/226/157 176/243/157 178/257/157 134/230/157 138/225/157
